# xmcd
#
# Track frame offsets:
# 150
# 10444
# 21283
# 30930
# 44069
# 63609
# 74454
# 86666
#
# Disc length: 1324 seconds
#
#
# Revision: 0
# Processed by: cddbd v1.5.2PL0 Copyright (c) Steve Scherf et al.
# Submitted via: Nero 7, 11, 10, 0 
#
DISCID=6b052a08
DTITLE=Cyril Davies - The Sound Of Cyril Davies
DYEAR=1964
DGENRE=Blues
TTITLE0=1
TTITLE1=1
TTITLE2=1
TTITLE3=1
TTITLE4=Country Line Special
TTITLE5=Chicago Calling
TTITLE6=Preachin' The Blues
TTITLE7=Sweet Mary
EXTD=
EXTT0=1
EXTT1=1
EXTT2=1
EXTT3=1
EXTT4=Country Line Special
EXTT5=Chicago Calling
EXTT6=Preachin' The Blues
EXTT7=Sweet Mary
PLAYORDER=
